<svg width="46" height="46" viewBox="0 0 46 46" fill="none" xmlns="http://www.w3.org/2000/svg">
<g filter="url(#filter0_i_1_127)">
<mask id="path-1-inside-1_1_127" fill="white">
<path d="M0 16C0 7.16344 7.16344 0 16 0H30C38.8366 0 46 7.16344 46 16V30C46 38.8366 38.8366 46 30 46H16C7.16344 46 0 38.8366 0 30V16Z"/>
</mask>
<path d="M0 16C0 7.16344 7.16344 0 16 0H30C38.8366 0 46 7.16344 46 16V30C46 38.8366 38.8366 46 30 46H16C7.16344 46 0 38.8366 0 30V16Z" fill="#80CBC0" fill-opacity="0.28"/>
<g clip-path="url(#paint0_diamond_1_127_clip_path)" data-figma-skip-parse="true" mask="url(#path-1-inside-1_1_127)"><g transform="matrix(0.028 0.0415 -0.0415 0.028 23 23)"><rect x="0" y="0" width="665.536" height="665.536" fill="url(#paint0_diamond_1_127)" opacity="0.28" shape-rendering="crispEdges"/><rect x="0" y="0" width="665.536" height="665.536" transform="scale(1 -1)" fill="url(#paint0_diamond_1_127)" opacity="0.28" shape-rendering="crispEdges"/><rect x="0" y="0" width="665.536" height="665.536" transform="scale(-1 1)" fill="url(#paint0_diamond_1_127)" opacity="0.28" shape-rendering="crispEdges"/><rect x="0" y="0" width="665.536" height="665.536" transform="scale(-1)" fill="url(#paint0_diamond_1_127)" opacity="0.28" shape-rendering="crispEdges"/></g></g><path d="M16 0V1H30V0V-1H16V0ZM46 16H45V30H46H47V16H46ZM30 46V45H16V46V47H30V46ZM0 30H1V16H0H-1V30H0ZM16 46V45C7.71573 45 1 38.2843 1 30H0H-1C-1 39.3888 6.61116 47 16 47V46ZM46 30H45C45 38.2843 38.2843 45 30 45V46V47C39.3888 47 47 39.3888 47 30H46ZM30 0V1C38.2843 1 45 7.71573 45 16H46H47C47 6.61116 39.3888 -1 30 -1V0ZM16 0V-1C6.61116 -1 -1 6.61116 -1 16H0H1C1 7.71573 7.71573 1 16 1V0Z" data-figma-gradient-fill="{&#34;type&#34;:&#34;GRADIENT_DIAMOND&#34;,&#34;stops&#34;:[{&#34;color&#34;:{&#34;r&#34;:1.0,&#34;g&#34;:1.0,&#34;b&#34;:1.0,&#34;a&#34;:1.0},&#34;position&#34;:0.53846156597137451},{&#34;color&#34;:{&#34;r&#34;:1.0,&#34;g&#34;:1.0,&#34;b&#34;:1.0,&#34;a&#34;:0.20999999344348907},&#34;position&#34;:0.69711536169052124}],&#34;stopsVar&#34;:[{&#34;color&#34;:{&#34;r&#34;:1.0,&#34;g&#34;:1.0,&#34;b&#34;:1.0,&#34;a&#34;:1.0},&#34;position&#34;:0.53846156597137451},{&#34;color&#34;:{&#34;r&#34;:1.0,&#34;g&#34;:1.0,&#34;b&#34;:1.0,&#34;a&#34;:0.20999999344348907},&#34;position&#34;:0.69711536169052124}],&#34;transform&#34;:{&#34;m00&#34;:56.000003814697266,&#34;m01&#34;:-83.0,&#34;m02&#34;:36.499996185302734,&#34;m10&#34;:83.0,&#34;m11&#34;:56.000003814697266,&#34;m12&#34;:-46.499996185302734},&#34;opacity&#34;:0.28000000119209290,&#34;blendMode&#34;:&#34;NORMAL&#34;,&#34;visible&#34;:true}" mask="url(#path-1-inside-1_1_127)"/>
<path d="M22.84 10C16.2984 10 11 12.4861 11 15.5556C11 18.625 16.2984 21.1111 22.84 21.1111C29.3816 21.1111 34.68 18.625 34.68 15.5556C34.68 12.4861 29.3816 10 22.84 10ZM11 17.2072V22.5C11 25.5694 16.2984 28.0556 22.84 28.0556C29.3816 28.0556 34.68 25.5694 34.68 22.5L35 16.7568C35 19.8262 29.3816 22.6308 22.84 22.6308C16.2984 22.6308 11 20.2767 11 17.2072ZM11 24.4144V29.4444C11 32.5139 16.2984 35 22.84 35C29.3816 35 34.68 32.5139 34.68 29.4444V24.4144C34.68 27.4839 29.3816 29.4444 22.84 29.4444C16.2984 29.4444 11 27.4839 11 24.4144Z" fill="white" fill-opacity="0.8"/>
</g>
<defs>
<filter id="filter0_i_1_127" x="0" y="0" width="46" height="46" filterUnits="userSpaceOnUse" color-interpolation-filters="sRGB">
<feFlood flood-opacity="0" result="BackgroundImageFix"/>
<feBlend mode="normal" in="SourceGraphic" in2="BackgroundImageFix" result="shape"/>
<feColorMatrix in="SourceAlpha" type="matrix" values="0 0 0 0 0 0 0 0 0 0 0 0 0 0 0 0 0 0 127 0" result="hardAlpha"/>
<feOffset/>
<feGaussianBlur stdDeviation="4.55"/>
<feComposite in2="hardAlpha" operator="arithmetic" k2="-1" k3="1"/>
<feColorMatrix type="matrix" values="0 0 0 0 1 0 0 0 0 1 0 0 0 0 1 0 0 0 0.16 0"/>
<feBlend mode="normal" in2="shape" result="effect1_innerShadow_1_127"/>
</filter>
<clipPath id="paint0_diamond_1_127_clip_path"><path d="M16 0V1H30V0V-1H16V0ZM46 16H45V30H46H47V16H46ZM30 46V45H16V46V47H30V46ZM0 30H1V16H0H-1V30H0ZM16 46V45C7.71573 45 1 38.2843 1 30H0H-1C-1 39.3888 6.61116 47 16 47V46ZM46 30H45C45 38.2843 38.2843 45 30 45V46V47C39.3888 47 47 39.3888 47 30H46ZM30 0V1C38.2843 1 45 7.71573 45 16H46H47C47 6.61116 39.3888 -1 30 -1V0ZM16 0V-1C6.61116 -1 -1 6.61116 -1 16H0H1C1 7.71573 7.71573 1 16 1V0Z" mask="url(#path-1-inside-1_1_127)"/></clipPath><linearGradient id="paint0_diamond_1_127" x1="0" y1="0" x2="500" y2="500" gradientUnits="userSpaceOnUse">
<stop offset="0.538462" stop-color="white"/>
<stop offset="0.697115" stop-color="white" stop-opacity="0.21"/>
</linearGradient>
</defs>
</svg>
