<svg width="46" height="46" viewBox="0 0 46 46" fill="none" xmlns="http://www.w3.org/2000/svg">
<g filter="url(#filter0_i_1_88)">
<mask id="path-1-inside-1_1_88" fill="white">
<path d="M0 16C0 7.16344 7.16344 0 16 0H30C38.8366 0 46 7.16344 46 16V30C46 38.8366 38.8366 46 30 46H16C7.16344 46 0 38.8366 0 30V16Z"/>
</mask>
<path d="M0 16C0 7.16344 7.16344 0 16 0H30C38.8366 0 46 7.16344 46 16V30C46 38.8366 38.8366 46 30 46H16C7.16344 46 0 38.8366 0 30V16Z" fill="#80CBC0" fill-opacity="0.28"/>
<g clip-path="url(#paint0_diamond_1_88_clip_path)" data-figma-skip-parse="true" mask="url(#path-1-inside-1_1_88)"><g transform="matrix(0.028 0.0415 -0.0415 0.028 23 23)"><rect x="0" y="0" width="665.536" height="665.536" fill="url(#paint0_diamond_1_88)" opacity="0.28" shape-rendering="crispEdges"/><rect x="0" y="0" width="665.536" height="665.536" transform="scale(1 -1)" fill="url(#paint0_diamond_1_88)" opacity="0.28" shape-rendering="crispEdges"/><rect x="0" y="0" width="665.536" height="665.536" transform="scale(-1 1)" fill="url(#paint0_diamond_1_88)" opacity="0.28" shape-rendering="crispEdges"/><rect x="0" y="0" width="665.536" height="665.536" transform="scale(-1)" fill="url(#paint0_diamond_1_88)" opacity="0.28" shape-rendering="crispEdges"/></g></g><path d="M16 0V1H30V0V-1H16V0ZM46 16H45V30H46H47V16H46ZM30 46V45H16V46V47H30V46ZM0 30H1V16H0H-1V30H0ZM16 46V45C7.71573 45 1 38.2843 1 30H0H-1C-1 39.3888 6.61116 47 16 47V46ZM46 30H45C45 38.2843 38.2843 45 30 45V46V47C39.3888 47 47 39.3888 47 30H46ZM30 0V1C38.2843 1 45 7.71573 45 16H46H47C47 6.61116 39.3888 -1 30 -1V0ZM16 0V-1C6.61116 -1 -1 6.61116 -1 16H0H1C1 7.71573 7.71573 1 16 1V0Z" data-figma-gradient-fill="{&#34;type&#34;:&#34;GRADIENT_DIAMOND&#34;,&#34;stops&#34;:[{&#34;color&#34;:{&#34;r&#34;:1.0,&#34;g&#34;:1.0,&#34;b&#34;:1.0,&#34;a&#34;:1.0},&#34;position&#34;:0.53846156597137451},{&#34;color&#34;:{&#34;r&#34;:1.0,&#34;g&#34;:1.0,&#34;b&#34;:1.0,&#34;a&#34;:0.20999999344348907},&#34;position&#34;:0.69711536169052124}],&#34;stopsVar&#34;:[{&#34;color&#34;:{&#34;r&#34;:1.0,&#34;g&#34;:1.0,&#34;b&#34;:1.0,&#34;a&#34;:1.0},&#34;position&#34;:0.53846156597137451},{&#34;color&#34;:{&#34;r&#34;:1.0,&#34;g&#34;:1.0,&#34;b&#34;:1.0,&#34;a&#34;:0.20999999344348907},&#34;position&#34;:0.69711536169052124}],&#34;transform&#34;:{&#34;m00&#34;:56.000003814697266,&#34;m01&#34;:-83.0,&#34;m02&#34;:36.499996185302734,&#34;m10&#34;:83.0,&#34;m11&#34;:56.000003814697266,&#34;m12&#34;:-46.499996185302734},&#34;opacity&#34;:0.28000000119209290,&#34;blendMode&#34;:&#34;NORMAL&#34;,&#34;visible&#34;:true}" mask="url(#path-1-inside-1_1_88)"/>
<path d="M35.8375 14C35.3461 14.0002 34.8615 14.1175 34.4221 14.3426C33.9828 14.5677 33.6009 14.8945 33.3066 15.297C33.0123 15.6994 32.8139 16.1665 32.727 16.661C32.6401 17.1556 32.6672 17.6641 32.8061 18.1461L27.9012 23.1607C27.2543 22.9404 26.555 22.9404 25.9082 23.1607L22.2719 19.4426C22.3916 18.9652 22.4029 18.4661 22.305 17.9835C22.2071 17.501 22.0026 17.0477 21.7071 16.6583C21.4116 16.269 21.0329 15.9538 20.6 15.7371C20.1672 15.5203 19.6915 15.4076 19.2095 15.4076C18.7276 15.4076 18.2519 15.5203 17.8191 15.7371C17.3862 15.9538 17.0075 16.269 16.712 16.6583C16.4165 17.0477 16.212 17.501 16.1141 17.9835C16.0162 18.4661 16.0275 18.9652 16.1472 19.4426L10.0657 25.6568C9.39053 25.4525 8.668 25.484 8.01233 25.7465C7.35665 26.009 6.80523 26.4874 6.44522 27.1062C6.08521 27.725 5.93714 28.4488 6.02443 29.1632C6.11172 29.8777 6.42937 30.542 6.92719 31.0512C7.42501 31.5604 8.07459 31.8854 8.77327 31.9749C9.47195 32.0644 10.1799 31.9132 10.7851 31.5453C11.3904 31.1774 11.8585 30.6137 12.1154 29.9433C12.3723 29.273 12.4034 28.5342 12.2037 27.8437L18.2082 21.7047C18.8551 21.9252 19.5544 21.9252 20.2012 21.7047L23.8382 25.4235C23.7185 25.901 23.7072 26.4 23.8051 26.8826C23.903 27.3652 24.1075 27.8185 24.403 28.2078C24.6985 28.5972 25.0772 28.9123 25.5101 29.1291C25.9429 29.3459 26.4186 29.4586 26.9005 29.4586C27.3825 29.4586 27.8582 29.3459 28.291 29.1291C28.7239 28.9123 29.1026 28.5972 29.3981 28.2078C29.6936 27.8185 29.8981 27.3652 29.996 26.8826C30.0939 26.4 30.0826 25.901 29.9629 25.4235L34.9441 20.333C35.379 20.4642 35.8363 20.4982 36.2852 20.4327C36.734 20.3672 37.1639 20.2038 37.5455 19.9535C37.9271 19.7032 38.2516 19.3718 38.497 18.982C38.7424 18.5922 38.9029 18.1529 38.9676 17.6941C39.0323 17.2352 38.9998 16.7675 38.8722 16.3226C38.7446 15.8778 38.5248 15.4662 38.228 15.1158C37.9311 14.7654 37.5639 14.4844 37.1515 14.2919C36.739 14.0994 36.2909 13.9998 35.8375 14Z" fill="white" fill-opacity="0.8"/>
</g>
<defs>
<filter id="filter0_i_1_88" x="0" y="0" width="46" height="46" filterUnits="userSpaceOnUse" color-interpolation-filters="sRGB">
<feFlood flood-opacity="0" result="BackgroundImageFix"/>
<feBlend mode="normal" in="SourceGraphic" in2="BackgroundImageFix" result="shape"/>
<feColorMatrix in="SourceAlpha" type="matrix" values="0 0 0 0 0 0 0 0 0 0 0 0 0 0 0 0 0 0 127 0" result="hardAlpha"/>
<feOffset/>
<feGaussianBlur stdDeviation="4.55"/>
<feComposite in2="hardAlpha" operator="arithmetic" k2="-1" k3="1"/>
<feColorMatrix type="matrix" values="0 0 0 0 1 0 0 0 0 1 0 0 0 0 1 0 0 0 0.16 0"/>
<feBlend mode="normal" in2="shape" result="effect1_innerShadow_1_88"/>
</filter>
<clipPath id="paint0_diamond_1_88_clip_path"><path d="M16 0V1H30V0V-1H16V0ZM46 16H45V30H46H47V16H46ZM30 46V45H16V46V47H30V46ZM0 30H1V16H0H-1V30H0ZM16 46V45C7.71573 45 1 38.2843 1 30H0H-1C-1 39.3888 6.61116 47 16 47V46ZM46 30H45C45 38.2843 38.2843 45 30 45V46V47C39.3888 47 47 39.3888 47 30H46ZM30 0V1C38.2843 1 45 7.71573 45 16H46H47C47 6.61116 39.3888 -1 30 -1V0ZM16 0V-1C6.61116 -1 -1 6.61116 -1 16H0H1C1 7.71573 7.71573 1 16 1V0Z" mask="url(#path-1-inside-1_1_88)"/></clipPath><linearGradient id="paint0_diamond_1_88" x1="0" y1="0" x2="500" y2="500" gradientUnits="userSpaceOnUse">
<stop offset="0.538462" stop-color="white"/>
<stop offset="0.697115" stop-color="white" stop-opacity="0.21"/>
</linearGradient>
</defs>
</svg>
