<svg width="46" height="46" viewBox="0 0 46 46" fill="none" xmlns="http://www.w3.org/2000/svg">
<g filter="url(#filter0_i_2_358)">
<mask id="path-1-inside-1_2_358" fill="white">
<path d="M0 16C0 7.16344 7.16344 0 16 0H30C38.8366 0 46 7.16344 46 16V30C46 38.8366 38.8366 46 30 46H16C7.16344 46 0 38.8366 0 30V16Z"/>
</mask>
<path d="M0 16C0 7.16344 7.16344 0 16 0H30C38.8366 0 46 7.16344 46 16V30C46 38.8366 38.8366 46 30 46H16C7.16344 46 0 38.8366 0 30V16Z" fill="#80CBC0" fill-opacity="0.28"/>
<g clip-path="url(#paint0_diamond_2_358_clip_path)" data-figma-skip-parse="true" mask="url(#path-1-inside-1_2_358)"><g transform="matrix(0.028 0.0415 -0.0415 0.028 23 23)"><rect x="0" y="0" width="665.536" height="665.536" fill="url(#paint0_diamond_2_358)" opacity="0.28" shape-rendering="crispEdges"/><rect x="0" y="0" width="665.536" height="665.536" transform="scale(1 -1)" fill="url(#paint0_diamond_2_358)" opacity="0.28" shape-rendering="crispEdges"/><rect x="0" y="0" width="665.536" height="665.536" transform="scale(-1 1)" fill="url(#paint0_diamond_2_358)" opacity="0.28" shape-rendering="crispEdges"/><rect x="0" y="0" width="665.536" height="665.536" transform="scale(-1)" fill="url(#paint0_diamond_2_358)" opacity="0.28" shape-rendering="crispEdges"/></g></g><path d="M16 0V1H30V0V-1H16V0ZM46 16H45V30H46H47V16H46ZM30 46V45H16V46V47H30V46ZM0 30H1V16H0H-1V30H0ZM16 46V45C7.71573 45 1 38.2843 1 30H0H-1C-1 39.3888 6.61116 47 16 47V46ZM46 30H45C45 38.2843 38.2843 45 30 45V46V47C39.3888 47 47 39.3888 47 30H46ZM30 0V1C38.2843 1 45 7.71573 45 16H46H47C47 6.61116 39.3888 -1 30 -1V0ZM16 0V-1C6.61116 -1 -1 6.61116 -1 16H0H1C1 7.71573 7.71573 1 16 1V0Z" data-figma-gradient-fill="{&#34;type&#34;:&#34;GRADIENT_DIAMOND&#34;,&#34;stops&#34;:[{&#34;color&#34;:{&#34;r&#34;:1.0,&#34;g&#34;:1.0,&#34;b&#34;:1.0,&#34;a&#34;:1.0},&#34;position&#34;:0.53846156597137451},{&#34;color&#34;:{&#34;r&#34;:1.0,&#34;g&#34;:1.0,&#34;b&#34;:1.0,&#34;a&#34;:0.20999999344348907},&#34;position&#34;:0.69711536169052124}],&#34;stopsVar&#34;:[{&#34;color&#34;:{&#34;r&#34;:1.0,&#34;g&#34;:1.0,&#34;b&#34;:1.0,&#34;a&#34;:1.0},&#34;position&#34;:0.53846156597137451},{&#34;color&#34;:{&#34;r&#34;:1.0,&#34;g&#34;:1.0,&#34;b&#34;:1.0,&#34;a&#34;:0.20999999344348907},&#34;position&#34;:0.69711536169052124}],&#34;transform&#34;:{&#34;m00&#34;:56.000003814697266,&#34;m01&#34;:-83.0,&#34;m02&#34;:36.499996185302734,&#34;m10&#34;:83.0,&#34;m11&#34;:56.000003814697266,&#34;m12&#34;:-46.499996185302734},&#34;opacity&#34;:0.28000000119209290,&#34;blendMode&#34;:&#34;NORMAL&#34;,&#34;visible&#34;:true}" mask="url(#path-1-inside-1_2_358)"/>
<path d="M21.2825 38C20.8982 38 20.5652 37.8728 20.2833 37.6183C20.0004 37.3639 19.8248 37.0467 19.7565 36.6667L19.3222 33.18C18.7948 33.0189 18.2245 32.7667 17.6113 32.4233C16.9991 32.0789 16.4778 31.71 16.0473 31.3167L12.8848 32.69C12.5358 32.8456 12.1812 32.8622 11.8212 32.74C11.4612 32.6178 11.1838 32.3872 10.9889 32.0483L9.20696 28.95C9.01208 28.6111 8.95483 28.2567 9.0352 27.8867C9.11557 27.5167 9.30714 27.2133 9.60991 26.9767L12.3712 24.8933C12.3216 24.5911 12.2814 24.2806 12.2506 23.9617C12.2176 23.6417 12.2011 23.3311 12.2011 23.03C12.2011 22.75 12.2176 22.4556 12.2506 22.1467C12.2814 21.8378 12.3216 21.49 12.3712 21.1033L9.60991 19.02C9.30714 18.7833 9.12108 18.475 9.05172 18.095C8.98236 17.715 9.04456 17.355 9.23833 17.015L10.9889 14.015C11.1838 13.6961 11.4612 13.4706 11.8212 13.3383C12.1812 13.2061 12.5358 13.2178 12.8848 13.3733L16.0159 14.7133C16.5092 14.2989 17.0432 13.925 17.6179 13.5917C18.1904 13.2583 18.748 13.0006 19.2908 12.8183L19.7582 9.33167C19.8253 8.95167 20.0004 8.63445 20.2833 8.38001C20.5663 8.12556 20.8993 7.9989 21.2825 8.00001H24.7175C25.1018 8.00001 25.4348 8.12723 25.7167 8.38167C25.9996 8.63612 26.1752 8.95334 26.2435 9.33334L26.6778 12.8533C27.3109 13.0778 27.8702 13.335 28.3557 13.625C28.8412 13.915 29.3416 14.2783 29.8569 14.715L33.1466 13.375C33.4967 13.2194 33.8518 13.2078 34.2118 13.34C34.5718 13.4722 34.8487 13.6978 35.0425 14.0167L36.793 17.0483C36.9879 17.3883 37.0452 17.7428 36.9648 18.1117C36.8844 18.4806 36.6929 18.7844 36.3901 19.0233L33.5033 21.2C33.5936 21.5444 33.6442 21.8606 33.6553 22.1483C33.6663 22.4361 33.6718 22.7194 33.6718 22.9983C33.6718 23.2572 33.6608 23.53 33.6387 23.8167C33.6178 24.1044 33.5694 24.4522 33.4934 24.86L36.2844 26.9767C36.5872 27.2133 36.7842 27.5167 36.8756 27.8867C36.967 28.2567 36.9153 28.6111 36.7204 28.95L34.9599 32.015C34.7661 32.355 34.4837 32.5856 34.1127 32.7067C33.7417 32.8289 33.3817 32.8122 33.0327 32.6567L29.8569 31.2833C29.3427 31.72 28.8253 32.0939 28.3045 32.405C27.7837 32.7161 27.2415 32.9633 26.6778 33.1467L26.2418 36.665C26.1747 37.045 25.9996 37.3622 25.7167 37.6167C25.4337 37.8711 25.1007 37.9989 24.7175 38H21.2825ZM22.9554 27.1667C24.107 27.1667 25.083 26.7628 25.8835 25.955C26.6839 25.1472 27.0841 24.1622 27.0841 23C27.0841 21.8378 26.6839 20.8528 25.8835 20.045C25.083 19.2372 24.107 18.8333 22.9554 18.8333C21.7972 18.8333 20.8195 19.2372 20.0224 20.045C19.2253 20.8528 18.8267 21.8378 18.8267 23C18.8267 24.1622 19.2253 25.1472 20.0224 25.955C20.8195 26.7628 21.7972 27.1667 22.9554 27.1667Z" fill="white" fill-opacity="0.8"/>
</g>
<defs>
<filter id="filter0_i_2_358" x="0" y="0" width="46" height="46" filterUnits="userSpaceOnUse" color-interpolation-filters="sRGB">
<feFlood flood-opacity="0" result="BackgroundImageFix"/>
<feBlend mode="normal" in="SourceGraphic" in2="BackgroundImageFix" result="shape"/>
<feColorMatrix in="SourceAlpha" type="matrix" values="0 0 0 0 0 0 0 0 0 0 0 0 0 0 0 0 0 0 127 0" result="hardAlpha"/>
<feOffset/>
<feGaussianBlur stdDeviation="4.55"/>
<feComposite in2="hardAlpha" operator="arithmetic" k2="-1" k3="1"/>
<feColorMatrix type="matrix" values="0 0 0 0 1 0 0 0 0 1 0 0 0 0 1 0 0 0 0.16 0"/>
<feBlend mode="normal" in2="shape" result="effect1_innerShadow_2_358"/>
</filter>
<clipPath id="paint0_diamond_2_358_clip_path"><path d="M16 0V1H30V0V-1H16V0ZM46 16H45V30H46H47V16H46ZM30 46V45H16V46V47H30V46ZM0 30H1V16H0H-1V30H0ZM16 46V45C7.71573 45 1 38.2843 1 30H0H-1C-1 39.3888 6.61116 47 16 47V46ZM46 30H45C45 38.2843 38.2843 45 30 45V46V47C39.3888 47 47 39.3888 47 30H46ZM30 0V1C38.2843 1 45 7.71573 45 16H46H47C47 6.61116 39.3888 -1 30 -1V0ZM16 0V-1C6.61116 -1 -1 6.61116 -1 16H0H1C1 7.71573 7.71573 1 16 1V0Z" mask="url(#path-1-inside-1_2_358)"/></clipPath><linearGradient id="paint0_diamond_2_358" x1="0" y1="0" x2="500" y2="500" gradientUnits="userSpaceOnUse">
<stop offset="0.538462" stop-color="white"/>
<stop offset="0.697115" stop-color="white" stop-opacity="0.21"/>
</linearGradient>
</defs>
</svg>
