<svg width="18" height="18" viewBox="0 0 18 18" fill="none" xmlns="http://www.w3.org/2000/svg">
<path d="M7.16875 14.7196C5.16518 14.7196 3.46968 14.007 2.08225 12.5818C0.694818 11.1567 0.00073584 9.41598 5.83537e-07 7.35978C-0.000734673 5.30357 0.693347 3.56289 2.08225 2.13773C3.47115 0.712577 5.16665 0 7.16875 0C9.17086 0 10.8667 0.712577 12.2564 2.13773C13.646 3.56289 14.3397 5.30357 14.3375 7.35978C14.3375 8.19011 14.2088 8.97326 13.9515 9.70924C13.6942 10.4452 13.3449 11.0963 12.9038 11.6624L17.6967 16.1034C17.8989 16.311 18 16.5752 18 16.896C18 17.2168 17.8989 17.481 17.6967 17.6886C17.4945 17.8962 17.2372 18 16.9247 18C16.6122 18 16.3549 17.8962 16.1527 17.6886L11.3597 13.2476C10.8083 13.7005 10.1741 14.0591 9.45724 14.3233C8.74036 14.5875 7.97753 14.7196 7.16875 14.7196ZM7.16875 12.455C8.54736 12.455 9.71936 11.9598 10.6847 10.9695C11.6501 9.9791 12.1325 8.77587 12.1317 7.35978C12.131 5.94368 11.6487 4.74083 10.6847 3.75122C9.72083 2.76161 8.54883 2.26606 7.16875 2.26455C5.78868 2.26304 4.61704 2.7586 3.65386 3.75122C2.69067 4.74385 2.20798 5.9467 2.20577 7.35978C2.20356 8.77285 2.68626 9.97608 3.65386 10.9695C4.62146 11.9628 5.79309 12.458 7.16875 12.455Z" fill="white"/>
</svg>
