<svg width="38" height="38" viewBox="0 0 38 38" fill="none" xmlns="http://www.w3.org/2000/svg">
<path d="M0 4.75C0 3.49022 0.500445 2.28204 1.39124 1.39124C2.28204 0.500445 3.49022 0 4.75 0H24.6136C25.2374 0 25.8551 0.122862 26.4314 0.361572C27.0077 0.600282 27.5313 0.950165 27.9724 1.39124C28.4135 1.83232 28.7634 2.35596 29.0021 2.93225C29.2408 3.50855 29.3636 4.12622 29.3636 4.75V24.1818H38V31.5227C38 33.2406 37.3176 34.8881 36.1029 36.1029C34.8881 37.3176 33.2406 38 31.5227 38H6.47727C4.75939 38 3.11187 37.3176 1.89715 36.1029C0.682425 34.8881 0 33.2406 0 31.5227V4.75ZM29.3636 35.4091H31.5227C32.5535 35.4091 33.542 34.9996 34.2708 34.2708C34.9996 33.542 35.4091 32.5535 35.4091 31.5227V26.7727H29.3636V35.4091ZM6.90909 9.93182C6.90909 10.6469 7.48945 11.2273 8.20455 11.2273H21.1591C21.5027 11.2273 21.8322 11.0908 22.0751 10.8478C22.3181 10.6049 22.4545 10.2754 22.4545 9.93182C22.4545 9.58824 22.3181 9.25874 22.0751 9.01579C21.8322 8.77285 21.5027 8.63636 21.1591 8.63636H8.20455C7.86097 8.63636 7.53147 8.77285 7.28852 9.01579C7.04558 9.25874 6.90909 9.58824 6.90909 9.93182ZM8.20455 17.2727C7.86097 17.2727 7.53147 17.4092 7.28852 17.6522C7.04558 17.8951 6.90909 18.2246 6.90909 18.5682C6.90909 18.9118 7.04558 19.2413 7.28852 19.4842C7.53147 19.7272 7.86097 19.8636 8.20455 19.8636H21.1591C21.5027 19.8636 21.8322 19.7272 22.0751 19.4842C22.3181 19.2413 22.4545 18.9118 22.4545 18.5682C22.4545 18.2246 22.3181 17.8951 22.0751 17.6522C21.8322 17.4092 21.5027 17.2727 21.1591 17.2727H8.20455ZM6.90909 27.2045C6.90909 27.9196 7.48945 28.5 8.20455 28.5H14.25C14.5936 28.5 14.9231 28.3635 15.166 28.1206C15.409 27.8776 15.5455 27.5481 15.5455 27.2045C15.5455 26.861 15.409 26.5315 15.166 26.2885C14.9231 26.0456 14.5936 25.9091 14.25 25.9091H8.20455C7.86097 25.9091 7.53147 26.0456 7.28852 26.2885C7.04558 26.5315 6.90909 26.861 6.90909 27.2045Z" fill="white"/>
</svg>
