<svg width="44" height="35" viewBox="0 0 44 35" fill="none" xmlns="http://www.w3.org/2000/svg">
<path d="M9.78582 31.5104L11.9604 26.2141C12.2866 25.3938 12.8122 24.7425 13.5371 24.2603C14.2619 23.7781 15.0774 23.5378 15.9835 23.5392H19.5716V14.926C14.0263 14.7477 9.37772 13.9452 5.62576 12.5186C1.8738 11.0919 -0.00144891 9.41567 8.39949e-07 7.48974C8.39949e-07 5.42114 2.12026 3.65571 6.36078 2.19342C10.6013 0.731141 15.7298 0 21.7463 0C27.799 0 32.9369 0.731141 37.16 2.19342C41.3831 3.65571 43.494 5.42114 43.4925 7.48974C43.4925 9.41567 41.6166 11.0919 37.8646 12.5186C34.1126 13.9452 29.4647 14.7477 23.9209 14.926V23.5392H27.509C28.3789 23.5392 29.1857 23.7803 29.9294 24.2625C30.6731 24.7447 31.2073 25.3952 31.5321 26.2141L33.7067 31.5104C33.9967 32.1524 33.9329 32.768 33.5154 33.3572C33.0978 33.9463 32.5273 34.2402 31.8039 34.2388C31.4052 34.2388 31.0428 34.1318 30.7166 33.9178C30.3904 33.7038 30.1367 33.4007 29.9555 33.0083L27.8352 27.819H15.6573L13.5371 33.0083C13.3558 33.4007 13.1021 33.7038 12.7759 33.9178C12.4497 34.1318 12.0873 34.2388 11.6886 34.2388C10.9637 34.2388 10.3933 33.9442 9.97719 33.355C9.56111 32.7658 9.49732 32.151 9.78582 31.5104Z" fill="white"/>
</svg>
